:SAMPLES-PER-SECOND 30
:FRAME-RANGE 1-2091
:FULLY-SPECIFIED
:DEGREES
915
root  64.2461 39.5977 82.9958 179.189 29.1446 176.302
RightUpLeg  -5.29408 -11.5934 -10.0386
RightLeg  8.20762 -10.2549 0.831162
RightFoot  -1.91166 -0.63658 7.54887
RightToes  5.82063e-011 0 -3.6325e-017
Spine  5.85975 -1.32226 3.4545
Spine1  -0.428275 -0.876618 -1.68183
HEad  17.1666 -28.148 -5.4599
LeftShoulder1  1.21042 0.378275 -32.6653
LeftArm  13.0099 19.5501 -29.0174
LeftForeArm  3.79065 -10.2118 -14.9415
LeftHand  0.399298 -0.585771 -7.73676
RightShoulder  6.7937 10.0665 43.7182
RightArm  11.9038 4.85625 12.1952
RightForeArm  6.79033 13.7541 11.3479
RightHand  0.177923 2.89295 2.27423
LeftUpLeg  -13.7162 28.6973 2.43308
LeftLeg  22.2987 5.62865 2.8624
LeftFoot  -9.63553 0.149407 -6.15624
LeftToes  -6.27584e-011 -2.25241e-010 2.80627e-011
916
root  64.0241 39.5648 82.858 179.394 26.9908 176.654
RightUpLeg  -4.49121 -11.8324 -10.4233
RightLeg  7.7838 -11.9879 0.786326
RightFoot  -1.88894 -0.677034 8.01982
RightToes  5.82063e-011 0 -3.6325e-017
Spine  5.71345 -1.25323 3.59682
Spine1  -0.485309 -0.755419 -1.88546
HEad  17.5483 -30.2877 -5.46243
LeftShoulder1  1.20216 0.422875 -32.9558
LeftArm  12.1212 21.1192 -28.6058
LeftForeArm  4.51662 -9.48003 -15.2981
LeftHand  0.404126 -0.634968 -7.76071
RightShoulder  7.17065 10.5371 44.6385
RightArm  17.1791 5.24181 13.4137
RightForeArm  2.16943 16.7849 9.40564
RightHand  0.216899 3.14208 2.71899
LeftUpLeg  -13.1468 27.8426 4.75508
LeftLeg  20.111 4.85205 2.29236
LeftFoot  -8.78585 0.199818 -6.59522
LeftToes  -6.27584e-011 -2.25241e-010 2.80627e-011
917
root  63.7101 39.5008 82.6854 179.755 24.9699 177.214
RightUpLeg  -3.81327 -12.2464 -10.7879
RightLeg  7.42451 -13.4903 0.916591
RightFoot  -1.7618 -0.728062 8.52962
RightToes  5.82063e-011 0 -3.6325e-017
Spine  5.54977 -1.17657 3.76024
Spine1  -0.632751 -0.683551 -1.78751
HEad  17.8061 -32.9025 -5.54313
LeftShoulder1  1.18355 0.475237 -33.0145
LeftArm  10.9916 22.6432 -28.4209
LeftForeArm  4.75445 -8.92383 -15.5315
LeftHand  0.40054 -0.537385 -7.83036
RightShoulder  7.472 10.8637 45.489
RightArm  22.5546 5.36996 14.4305
RightForeArm  -2.27351 19.6963 7.25435
RightHand  0.256736 3.30118 3.18902
LeftUpLeg  -12.6125 26.5848 7.0347
LeftLeg  18.0076 4.33934 1.89985
LeftFoot  -7.33717 0.270073 -6.4644
LeftToes  -6.27584e-011 -2.25241e-010 2.80627e-011
918
root  63.3015 39.425 82.487 -179.921 23.3228 177.807
RightUpLeg  -3.22494 -12.6645 -11.2274
RightLeg  7.09284 -14.551 1.10201
RightFoot  -1.45248 -0.795597 9.06327
RightToes  5.82063e-011 0 -3.6325e-017
Spine  5.62645 -1.07263 3.84498
Spine1  -0.973502 -0.590416 -1.65587
HEad  18.1072 -35.6929 -5.80473
LeftShoulder1  1.14836 0.556703 -32.9002
LeftArm  9.75583 24.0919 -28.4498
LeftForeArm  5.32463 -8.53716 -15.6344
LeftHand  0.411954 -0.588496 -7.97907
RightShoulder  7.87319 11.2483 46.7161
RightArm  26.361 5.53581 14.7337
RightForeArm  -4.52027 21.8916 5.79311
RightHand  0.284728 3.29173 3.56719
LeftUpLeg  -11.9144 25.4047 9.16052
LeftLeg  16.1789 4.98553 1.90437
LeftFoot  -6.32697 0.301764 -6.02267
LeftToes  -6.27584e-011 -2.25241e-010 2.80627e-011
919
root  62.7897 39.326 82.2642 -179.548 22.1363 178.495
RightUpLeg  -2.85484 -13.0043 -11.6413
RightLeg  6.86307 -15.2397 1.23726
RightFoot  -1.0715 -0.889916 9.79873
RightToes  5.82063e-011 0 -3.6325e-017
Spine  5.57085 -0.899259 4.03553
Spine1  -1.03892 -0.409365 -1.59004
HEad  18.1006 -38.6218 -5.84724
LeftShoulder1  1.12382 0.610132 -32.7715
LeftArm  8.92381 25.1862 -28.6108
LeftForeArm  5.36966 -8.50801 -15.5906
LeftHand  0.41879 -0.566963 -8.14406
RightShoulder  8.13284 11.4267 47.6985
RightArm  28.0631 5.80983 15.2407
RightForeArm  -4.36314 23.2628 5.28647
RightHand  0.311041 3.58396 3.76948
LeftUpLeg  -11.084 24.2099 11.2165
LeftLeg  14.715 6.4177 1.89913
LeftFoot  -5.16916 0.316065 -5.28562
LeftToes  -6.27584e-011 -2.25241e-010 2.80627e-011
920
root  62.1742 39.1968 82.0113 -179.191 21.1357 179.19
RightUpLeg  -2.61813 -13.315 -12.139
RightLeg  6.78332 -15.7681 1.22336
RightFoot  -0.625155 -1.01701 10.7679
RightToes  5.82063e-011 0 -3.6325e-017
Spine  5.59124 -0.834278 3.96137
Spine1  -1.11159 -0.386972 -1.28922
HEad  18.3656 -41.1775 -6.20798
LeftShoulder1  1.09325 0.677698 -32.6177
LeftArm  8.94282 26.3202 -28.8599
LeftForeArm  5.02881 -9.15704 -15.2609
LeftHand  0.438267 -0.698089 -8.32444
RightShoulder  8.34229 11.5923 48.3975
RightArm  28.6583 5.71656 16.017
RightForeArm  -2.85445 24.2469 5.33229
RightHand  0.329112 3.72495 3.93074
LeftUpLeg  -10.236 22.9518 12.8425
LeftLeg  13.6555 8.17821 2.00623
LeftFoot  -4.16289 0.303154 -4.43401
LeftToes  -6.27584e-011 -2.25241e-010 2.80627e-011
921
root  61.4525 39.0334 81.7194 -178.817 20.3807 179.957
RightUpLeg  -2.50326 -13.6217 -12.6983
RightLeg  6.8315 -16.0217 1.13692
RightFoot  -0.121441 -1.16341 11.7969
RightToes  5.82063e-011 0 -3.6325e-017
Spine  5.46205 -0.793157 3.91186
Spine1  -0.896516 -0.3804 -1.01558
HEad  18.275 -43.5218 -6.20895
LeftShoulder1  1.07765 0.702532 -32.4041
LeftArm  8.93286 27.008 -29.2469
LeftForeArm  4.72998 -9.69899 -14.968
LeftHand  0.444606 -0.753598 -8.36239
RightShoulder  8.48687 11.6012 49.2109
RightArm  29.4235 5.63068 16.3683
RightForeArm  -1.4463 24.7965 5.3841
RightHand  0.349304 3.83644 4.12887
LeftUpLeg  -9.56413 22.7247 13.8913
LeftLeg  13.5098 8.72958 2.13924
LeftFoot  -3.64668 0.300987 -4.1497
LeftToes  -6.27584e-011 -2.25241e-010 2.80627e-011
922
root  60.6165 38.824 81.3902 -178.566 19.6519 -179.272
RightUpLeg  -2.27265 -14.0111 -13.4635
RightLeg  6.9159 -16.3251 0.965353
RightFoot  0.452561 -1.35951 13.1393
RightToes  5.82063e-011 0 -3.6325e-017
Spine  5.56889 -0.86455 3.79519
Spine1  -0.844924 -0.483073 -0.724034
HEad  18.2736 -45.5795 -6.20941
LeftShoulder1  1.07459 0.687643 -32.0925
LeftArm  11.1557 27.3977 -29.6507
LeftForeArm  2.45394 -10.9246 -14.4915
LeftHand  0.426978 -0.556782 -8.31935
RightShoulder  8.48268 11.3852 49.8998
RightArm  30.296 5.22459 16.6112
RightForeArm  0.0307481 25.0677 5.36951
RightHand  0.397658 4.12871 4.57019
LeftUpLeg  -8.98953 23.1722 14.2571
LeftLeg  14.2251 8.11461 2.31216
LeftFoot  -2.59796 0.352813 -4.41052
LeftToes  -6.27584e-011 -2.25241e-010 2.80627e-011
923
root  59.7058 38.672 81.0324 -178.434 18.8669 -178.984
RightUpLeg  -1.5228 -14.5562 -14.8055
RightLeg  5.86189 -16.295 1.06046
RightFoot  1.61417 -1.6347 14.4249
RightToes  5.82063e-011 0 -3.6325e-017
Spine  5.50217 -0.990713 2.68885
Spine1  -0.593261 -0.741951 -0.354879
HEad  18.1994 -47.2715 -6.19771
LeftShoulder1  1.09389 0.643271 -32.176
LeftArm  10.9964 26.9106 -29.8183
LeftForeArm  2.90142 -10.8187 -14.5235
LeftHand  0.431087 -0.636681 -8.2784
RightShoulder  8.23378 10.8902 50.1026
RightArm  31.2498 4.6877 17.0881
RightForeArm  0.771583 24.6453 5.23667
RightHand  0.408929 4.18942 4.67327
LeftUpLeg  -8.20122 21.7269 14.1004
LeftLeg  13.9017 9.00277 2.26839
LeftFoot  -1.5573 1.15509 -13.3393
LeftToes  -6.27584e-011 -2.25241e-010 2.80627e-011
924
root  58.7808 38.5991 80.7218 -178.411 17.746 -179.708
RightUpLeg  -0.701615 -15.3238 -16.9357
RightLeg  4.14066 -16.7427 0.972783
RightFoot  3.46426 -1.98304 15.3622
RightToes  5.82063e-011 0 -3.6325e-017
Spine  5.81988 -1.20096 -0.430278
Spine1  -0.814849 -1.34598 0.788016
HEad  17.7855 -48.8044 -5.57499
LeftShoulder1  1.10768 0.639181 -32.6022
LeftArm  10.5029 25.4217 -29.4556
LeftForeArm  3.72023 -10.0975 -14.903
LeftHand  0.425748 -0.695615 -8.08905
RightShoulder  7.9931 10.2343 50.953
RightArm  33.1533 4.28994 16.7375
RightForeArm  0.00310611 23.5193 5.05377
RightHand  0.360061 4.09773 4.1283
LeftUpLeg  -10.103 28.4035 11.5131
LeftLeg  16.0206 1.84602 0.533967
LeftFoot  -2.02754 0.841003 -10.1566
LeftToes  -6.27584e-011 -2.25241e-010 2.80627e-011
925
root  57.8463 38.5699 80.4252 -178.586 15.8701 178.866
RightUpLeg  0.220939 -16.1103 -19.586
RightLeg  2.68728 -17.8984 0.381141
RightFoot  5.47415 -2.26728 15.5092
RightToes  5.82063e-011 0 -3.6325e-017
Spine  6.6191 -1.49489 -3.45704
Spine1  -1.45055 -1.95114 1.52938
HEad  17.7621 -50.376 -5.72722
LeftShoulder1  1.20063 0.382576 -32.4058
LeftArm  9.07672 22.9173 -29.1942
LeftForeArm  5.32506 -8.61129 -15.5521
LeftHand  0.414141 -0.62021 -7.97536
RightShoulder  7.61744 9.38926 51.7284
RightArm  31.9293 3.58111 16.2333
RightForeArm  1.46464 20.5479 6.48163
RightHand  0.29512 4.05284 3.35415
LeftUpLeg  -11.56 30.3592 7.88786
LeftLeg  17.2419 -1.35974 -0.317171
LeftFoot  -3.13365 0.647102 -8.74623
LeftToes  -6.27584e-011 -2.25241e-010 2.80627e-011
926
root  56.9752 38.6405 80.1412 -178.223 14.3695 178.598
RightUpLeg  0.172386 -14.9728 -19.819
RightLeg  2.0335 -20.034 -1.3336
RightFoot  6.87442 -1.68126 10.7542
RightToes  5.82063e-011 0 -3.6325e-017
Spine  6.85349 -1.57256 -4.18252
Spine1  -1.65615 -2.02114 1.08611
HEad  17.0785 -51.8456 -5.983
LeftShoulder1  1.32358 0.0278181 -32.0225
LeftArm  6.14048 20.1473 -28.9244
LeftForeArm  7.27153 -7.64408 -15.6864
LeftHand  0.40771 -0.543301 -7.96237
RightShoulder  7.07668 8.46333 51.7773
RightArm  25.5112 2.4282 15.9993
RightForeArm  6.90949 16.5419 9.66758
RightHand  0.236242 4.0517 2.6317
LeftUpLeg  -12.5347 30.0752 5.62123
LeftLeg  17.5933 -2.10914 -0.66206
LeftFoot  -3.9612 0.505498 -7.4636
LeftToes  -6.27584e-011 -2.25241e-010 2.80627e-011
927
root  56.2129 38.749 79.8758 -177.922 13.6776 178.553
RightUpLeg  -1.31753 -14.0689 -19.2112
RightLeg  4.59881 -15.8169 -3.01116
RightFoot  4.54566 -1.23342 9.04566
RightToes  5.82063e-011 0 -3.6325e-017
Spine  7.05624 -1.39092 -4.63743
Spine1  -1.64626 -1.84766 0.94111
HEad  15.7754 -52.8225 -5.77699
LeftShoulder1  1.33933 -0.0415021 -31.7228
LeftArm  5.5689 17.6493 -28.3776
LeftForeArm  6.66758 -8.86142 -15.0234
LeftHand  0.400376 -0.547938 -7.81189
RightShoulder  6.79702 7.96518 51.8904
RightArm  17.7497 1.65023 15.52
RightForeArm  13.238 11.2506 13.0826
RightHand  0.196588 3.71458 2.24811
LeftUpLeg  -12.7168 28.4744 4.1176
LeftLeg  17.3179 -1.10467 -0.477448
LeftFoot  -4.56803 0.434767 -6.87947
LeftToes  -6.27584e-011 -2.25241e-010 2.80627e-011
928
root  55.6443 38.8747 79.6399 -177.872 13.6513 178.983
RightUpLeg  -2.9943 -11.7202 -17.3905
RightLeg  8.253 -10.6381 -3.47483
RightFoot  1.03053 -1.11758 10.3498
RightToes  5.82063e-011 0 -3.6325e-017
Spine  7.60139 -1.20414 -4.95081
Spine1  -1.7058 -1.64869 0.495583
HEad  13.9465 -52.9968 -4.817
LeftShoulder1  1.27148 0.114187 -31.4531
LeftArm  7.41165 16.1914 -27.6244
LeftForeArm  3.71376 -12.1589 -13.2639
LeftHand  0.377969 -0.786611 -7.05945
RightShoulder  6.93437 8.09299 52.3416
RightArm  11.0918 1.27821 14.4326
RightForeArm  20.2711 5.47822 15.2515
RightHand  0.226084 3.41336 2.73607
LeftUpLeg  -11.873 26.6756 4.17463
LeftLeg  16.5886 0.84795 -0.749455
LeftFoot  -4.83876 0.39027 -6.356
LeftToes  -6.27584e-011 -2.25241e-010 2.80627e-011
929
root  55.2119 39.0088 79.406 -177.612 13.2666 179.574
RightUpLeg  -4.75494 -8.75193 -15.1967
RightLeg  12.6359 -8.93349 -3.04761
RightFoot  -1.91378 -1.01633 12.1244
RightToes  5.82063e-011 0 -3.6325e-017
Spine  7.67478 -1.34356 -5.78015
Spine1  -1.54085 -1.91727 0.725425
HEad  12.3432 -52.7894 -3.62319
LeftShoulder1  1.24118 0.146905 -30.9121
LeftArm  11.0601 15.7943 -27.0491
LeftForeArm  -1.34404 -16.4016 -10.3393
LeftHand  0.331308 -0.977651 -5.97304
RightShoulder  6.82125 7.88932 52.407
RightArm  6.32335 1.14472 13.6998
RightForeArm  26.0309 1.08877 15.8188
RightHand  0.209713 2.99651 2.67813
LeftUpLeg  -10.9598 22.8913 4.90426
LeftLeg  15.5098 4.29215 -1.36004
LeftFoot  -4.86046 0.371192 -6.03863
LeftToes  -6.27584e-011 -2.25241e-010 2.80627e-011
